<svg width="320" height="133" viewBox="0 0 320 133" fill="none" xmlns="http://www.w3.org/2000/svg">
<g id="Group 38 Copy 3">
<rect id="Mask" y="2" width="320" height="129" rx="12" fill="black"/>
<mask id="mask0_2153_153" style="mask-type:alpha" maskUnits="userSpaceOnUse" x="0" y="2" width="320" height="129">
<rect id="Mask_2" y="2" width="320" height="129" rx="12" fill="white"/>
</mask>
<g mask="url(#mask0_2153_153)">
<g id="Group 337">
<path id="Mask_3" d="M0 5.23612C0 -0.654917 4.77563 -5.43056 10.6667 -5.43056H309.333C315.224 -5.43056 320 -0.654928 320 5.23611V159.014H0V5.23612Z" fill="#FFDDA1"/>
<g id="Mask Group">
<mask id="mask1_2153_153" style="mask-type:alpha" maskUnits="userSpaceOnUse" x="0" y="-6" width="320" height="148">
<path id="Mask_4" d="M0 5.23612C0 -0.654912 4.77563 -5.43056 10.6667 -5.43056H309.333C315.224 -5.43056 320 -0.654928 320 5.23611V141.236H0V5.23612Z" fill="#FFDDA1"/>
</mask>
<g mask="url(#mask1_2153_153)">
<g id="Group 336">
<path id="Rectangle 61" d="M53.5255 64.0638L-3.50681 -24.629L-38.8568 6.06957L38.1162 77.4455L53.5255 64.0638Z" fill="url(#paint0_linear_2153_153)" fill-opacity="0.4"/>
<path id="Rectangle 63" d="M40.0238 90.0569L-63.692 107.137L-65.2175 66.2003L39.3588 72.2124L40.0238 90.0569Z" fill="url(#paint1_linear_2153_153)" fill-opacity="0.4"/>
<path id="Rectangle 66" d="M60.3581 108.64L-39.4079 278.274L-102.222 229.269L32.977 87.2782L60.3581 108.64Z" fill="url(#paint2_linear_2153_153)" fill-opacity="0.4"/>
<path id="Rectangle 62" d="M37.3507 69.0073L106.733 -70.3195L157.205 -36.6717L59.3516 83.6746L37.3507 69.0073Z" fill="url(#paint3_linear_2153_153)" fill-opacity="0.4"/>
<path id="Rectangle 65" d="M34.1851 81.2947L285.269 -20.9624L304.709 81.2969L37.118 100.606L34.1851 81.2947Z" fill="url(#paint4_linear_2153_153)" fill-opacity="0.4"/>
<path id="Rectangle 64" d="M50.6807 104.676L213.163 266.336L271.662 170.674L56.645 92.4901L50.6807 104.676Z" fill="url(#paint5_linear_2153_153)" fill-opacity="0.4"/>
</g>
</g>
</g>
<g id="Group 336_2">
<path id="Vector" d="M52.1945 122.605C67.8091 122.605 80.4643 120.927 80.4643 118.784C80.4643 116.686 67.8091 114.964 52.1945 114.964C36.5798 114.964 23.9247 116.642 23.9247 118.784C23.9468 120.905 36.5798 122.605 52.1945 122.605Z" fill="#F9BC72"/>
<g id="Group 333">
<g id="Vector_2">
<path d="M87.6094 63.9083C88.3449 65.2078 89.9877 65.9679 91.7286 65.7963C91.9247 65.7227 92.1944 65.6246 92.4641 65.453C93.1016 65.0607 93.4939 64.5703 93.4694 64.5458C93.4449 64.5213 92.7093 65.6246 91.4588 65.8453C90.8704 65.9434 90.4291 65.7963 89.9877 65.6737C89.5219 65.502 88.2223 65.1097 87.6094 63.9083C87.2416 63.1728 87.2906 62.4127 87.3397 61.7997C87.3887 61.2358 87.5113 60.7699 87.6094 60.4511C87.6094 60.4266 87.3397 61.0641 87.2661 61.8242C87.2171 62.4127 87.2661 62.9276 87.3397 63.2708C86.1382 61.1377 84.4219 60.0098 83.1224 60.3776C82.7056 60.5002 82.0681 60.8435 81.921 61.4319C81.6513 62.3881 82.9998 62.7559 83.7844 64.7174C84.3484 66.1641 84.1032 67.1203 85.1085 68.1991C85.3782 68.4934 85.6479 68.6895 85.8195 68.8121C85.6233 69.6212 84.3484 74.5005 79.984 76.5846C75.1538 78.8894 68.4356 76.8788 64.5126 71.1904C64.2674 72.0731 64.0222 72.9313 63.7525 73.814C66.9645 79.8456 73.8297 82.7634 79.8614 80.9735C84.9123 79.4778 88.6882 74.9173 89.4238 69.4006C90.9685 69.6948 92.366 68.714 92.9055 68.3708C94.1804 67.4881 97.0492 64.5213 95.8723 61.4319C94.9896 59.1516 92.0963 57.2146 89.718 58.2935C87.8055 59.1271 86.4815 61.8732 87.6094 63.9083Z" fill="#FFD44F"/>
<path d="M87.6094 63.9083C88.3449 65.2078 89.9877 65.9679 91.7286 65.7963C91.9247 65.7227 92.1944 65.6246 92.4641 65.453C93.1016 65.0607 93.4939 64.5703 93.4694 64.5458C93.4449 64.5213 92.7093 65.6246 91.4588 65.8453C90.8704 65.9434 90.4291 65.7963 89.9877 65.6737C89.5219 65.502 88.2223 65.1097 87.6094 63.9083ZM87.6094 63.9083C87.2416 63.1728 87.2906 62.4127 87.3397 61.7997C87.3887 61.2358 87.5113 60.7699 87.6094 60.4511C87.6094 60.4266 87.3397 61.0641 87.2661 61.8242C87.2171 62.4127 87.2661 62.9276 87.3397 63.2708C86.1382 61.1377 84.4219 60.0098 83.1224 60.3776C82.7056 60.5002 82.0681 60.8435 81.921 61.4319C81.6513 62.3881 82.9998 62.7559 83.7844 64.7174C84.3484 66.1641 84.1032 67.1203 85.1085 68.1991C85.3782 68.4934 85.6479 68.6895 85.8195 68.8121C85.6233 69.6212 84.3484 74.5005 79.984 76.5846C75.1538 78.8894 68.4356 76.8788 64.5126 71.1904C64.2674 72.0731 64.0222 72.9313 63.7525 73.814C66.9645 79.8456 73.8297 82.7634 79.8614 80.9735C84.9123 79.4778 88.6882 74.9173 89.4238 69.4006C90.9685 69.6948 92.366 68.714 92.9055 68.3708C94.1804 67.4881 97.0492 64.5213 95.8723 61.4319C94.9896 59.1516 92.0963 57.2146 89.718 58.2935C87.8055 59.1271 86.4815 61.8732 87.6094 63.9083Z" stroke="#571C32" stroke-width="0.791594" stroke-miterlimit="10" stroke-linecap="round" stroke-linejoin="round"/>
</g>
<path id="Vector_3" d="M37.9677 74.3211C38.5719 72.3394 39.1277 70.7928 39.5869 69.6811C40.3844 68.8836 44.6619 64.6303 51.5252 64.6061C57.2768 64.6061 61.4577 67.5061 63.5843 69.5603C63.5843 69.5603 65.5418 73.4511 65.7351 73.8136C66.5568 75.4811 72.0426 89.7394 66.001 98.3427C63.2218 102.282 57.4218 103.152 51.1869 102.862C45.8219 102.668 40.0219 102.427 37.4361 98.5843C32.7478 91.8902 36.3002 80.1694 37.9677 74.3211Z" fill="#FFD54F"/>
<g id="Mask Group_2">
<mask id="mask2_2153_153" style="mask-type:alpha" maskUnits="userSpaceOnUse" x="35" y="64" width="34" height="39">
<path id="Vector_4" d="M37.9686 74.3222C38.5728 72.3406 39.1286 70.7939 39.5878 69.6823C40.3853 68.8848 44.6627 64.6314 51.526 64.6073C57.2777 64.6073 61.4585 67.5073 63.5852 69.5614C63.5852 69.5614 65.5427 73.4522 65.736 73.8147C66.5577 75.4822 72.0435 89.7405 66.0018 98.3438C63.2227 102.283 57.4227 103.153 51.1877 102.863C45.8227 102.67 40.0228 102.428 37.4369 98.5855C32.7486 91.8913 36.3011 80.1706 37.9686 74.3222Z" fill="#FFD54F"/>
</mask>
<g mask="url(#mask2_2153_153)">
<path id="Vector_5" d="M37.7018 63.5471C37.7018 63.5471 45.5076 65.5288 48.9393 65.9879C42.9943 75.2196 37.1702 99.0237 56.5518 103.132C54.7876 114.804 39.2002 103.978 39.2002 103.978C39.2002 103.978 24.7727 88.7045 37.7018 63.5471Z" fill="#F5A546"/>
</g>
</g>
<path id="Vector_6" d="M42.2693 115.387C44.3477 114.13 43.3568 110.554 44.7585 103.932C45.2177 101.854 45.701 100.186 46.0152 99.1471L41.4718 97.3104C41.1577 98.4946 40.7952 100.38 40.2152 102.724C38.1368 111.013 37.146 113.623 38.5477 114.976C39.3452 115.991 41.1093 116.064 42.2693 115.387Z" fill="#FFD54F"/>
<path id="Vector_7" d="M42.2693 115.387C44.3477 114.13 43.3568 110.554 44.7585 103.932C45.2177 101.854 45.701 100.186 46.0152 99.1471L41.4718 97.3104C41.1577 98.4946 40.7952 100.38 40.2152 102.724C38.1368 111.013 37.146 113.623 38.5477 114.976C39.3452 115.991 41.1093 116.064 42.2693 115.387Z" stroke="#571C32" stroke-width="0.791594" stroke-miterlimit="10" stroke-linecap="round" stroke-linejoin="round"/>
<path id="Vector_8" d="M60.6376 115.387C58.5593 114.13 59.5501 110.554 58.1484 103.932C57.6893 101.854 57.206 100.186 56.8918 99.1471L61.4351 97.3104C61.7493 98.4946 62.1118 100.38 62.6918 102.724C64.7701 111.013 65.7609 113.623 64.3593 114.976C63.5618 115.991 61.7976 116.064 60.6376 115.387Z" fill="#FFD54F"/>
<path id="Vector_9" d="M60.6376 115.387C58.5593 114.13 59.5501 110.554 58.1484 103.932C57.6893 101.854 57.206 100.186 56.8918 99.1471L61.4351 97.3104C61.7493 98.4946 62.1118 100.38 62.6918 102.724C64.7701 111.013 65.7609 113.623 64.3593 114.976C63.5618 115.991 61.7976 116.064 60.6376 115.387Z" stroke="#571C32" stroke-width="0.791594" stroke-miterlimit="10" stroke-linecap="round" stroke-linejoin="round"/>
<path id="Vector_10" d="M60.6355 102.139C60.6355 102.139 61.0947 108.325 59.9589 114.681L59.4997 111.974L58.0497 101.824C58.0497 101.824 60.6355 100.544 60.6355 102.139Z" fill="#F5A546"/>
<path id="Vector_11" d="M70.689 117.823C69.6015 118.548 67.4023 119.805 64.3815 120.071C60.1523 120.53 56.8898 118.814 55.8265 118.186C56.914 115.117 59.8382 112.99 63.1731 112.917C66.3873 112.772 69.4081 114.754 70.689 117.823Z" fill="#FFD54F"/>
<path id="Vector_12" d="M70.689 117.823C69.6015 118.548 67.4023 119.805 64.3815 120.071C60.1523 120.53 56.8898 118.814 55.8265 118.186C56.914 115.117 59.8382 112.99 63.1731 112.917C66.3873 112.772 69.4081 114.754 70.689 117.823Z" stroke="#571C32" stroke-width="0.791594" stroke-miterlimit="10" stroke-linecap="round" stroke-linejoin="round"/>
<g id="Mask Group_3">
<mask id="mask3_2153_153" style="mask-type:alpha" maskUnits="userSpaceOnUse" x="55" y="112" width="16" height="9">
<g id="Group">
<g id="Group_2">
<g id="Group_3">
<g id="Group_4">
<path id="Vector_13" d="M70.689 117.817C69.6015 118.542 67.4023 119.798 64.3815 120.064C60.1523 120.523 56.8898 118.807 55.8265 118.179C56.914 115.11 59.8382 112.983 63.1731 112.911C66.3873 112.766 69.4081 114.748 70.689 117.817Z" fill="#FFD54F"/>
</g>
</g>
</g>
</g>
</mask>
<g mask="url(#mask3_2153_153)">
<path id="Vector_14" d="M55.0302 119.173C55.0302 119.173 53.8944 122.194 59.8877 116.249C59.8877 116.249 69.2643 111.609 63.6819 111.778C58.0994 111.947 55.0302 118.641 55.0302 118.641V119.173Z" fill="#F5A546"/>
</g>
</g>
<path id="Vector_15" d="M70.689 117.823C69.6015 118.548 67.4023 119.805 64.3815 120.071C60.1523 120.53 56.8898 118.814 55.8265 118.186C56.914 115.117 59.8382 112.99 63.1731 112.917C66.3873 112.772 69.4081 114.754 70.689 117.823Z" stroke="#571C32" stroke-width="0.791594" stroke-miterlimit="10" stroke-linecap="round" stroke-linejoin="round"/>
<path id="Vector_16" d="M43.3412 102.105C43.3412 102.105 41.5046 108.002 38.0729 113.512L38.6529 110.805L41.0937 100.849C41.0212 100.849 43.9212 100.631 43.3412 102.105Z" fill="#F5A546"/>
<path id="Vector_17" d="M37.9677 74.3211C38.5719 72.3394 39.1277 70.7928 39.5869 69.6811C40.3844 68.8836 44.6619 64.6303 51.5252 64.6061C57.2768 64.6061 61.4577 67.5061 63.5843 69.5603C63.5843 69.5603 65.5418 73.4511 65.7351 73.8136C66.5568 75.4811 72.0426 89.7394 66.001 98.3427C63.2218 102.282 57.4218 103.152 51.1869 102.862C45.8219 102.668 40.0219 102.427 37.4361 98.5843C32.7478 91.8902 36.3002 80.1694 37.9677 74.3211Z" stroke="#571C32" stroke-width="0.791594" stroke-miterlimit="10"/>
<path id="Vector_18" d="M40.9884 101.316C41.7134 102.089 46.2567 103.733 52.1775 103.443C54.28 103.346 60.9258 102.403 61.6992 101.558C63.3183 99.7451 61.8683 91.2384 60.4425 88.3868C60.2492 88.0001 57.2767 82.3451 51.5975 82.2968C45.9909 82.2968 43.0184 87.7343 42.6801 88.3868C40.0942 93.1959 40.7709 100.543 40.9884 101.316Z" fill="#F8F4DD"/>
<path id="Vector_19" d="M40.9884 101.316C41.7134 102.089 46.2567 103.733 52.1775 103.443C54.28 103.346 60.9258 102.403 61.6992 101.558C63.3183 99.7451 61.8683 91.2384 60.4425 88.3868C60.2492 88.0001 57.2767 82.3451 51.5975 82.2968C45.9909 82.2968 43.0184 87.7343 42.6801 88.3868C40.0942 93.1959 40.7709 100.543 40.9884 101.316Z" stroke="#571C32" stroke-width="0.791594" stroke-miterlimit="10"/>
<path id="Vector_20" d="M32.2163 117.823C33.3038 118.548 35.5029 119.805 38.5238 120.071C42.7529 120.53 46.0154 118.814 47.0787 118.186C45.9912 115.117 43.0671 112.99 39.7321 112.917C36.4938 112.772 33.4971 114.754 32.2163 117.823Z" fill="#FFD54F"/>
<path id="Vector_21" d="M32.2163 117.823C33.3038 118.548 35.5029 119.805 38.5238 120.071C42.7529 120.53 46.0154 118.814 47.0787 118.186C45.9912 115.117 43.0671 112.99 39.7321 112.917C36.4938 112.772 33.4971 114.754 32.2163 117.823Z" stroke="#571C32" stroke-width="0.791594" stroke-miterlimit="10" stroke-linecap="round" stroke-linejoin="round"/>
<g id="Mask Group_4">
<mask id="mask4_2153_153" style="mask-type:alpha" maskUnits="userSpaceOnUse" x="32" y="112" width="16" height="9">
<path id="Vector_22" d="M32.2163 117.82C33.3038 118.545 35.5029 119.802 38.5238 120.068C42.7529 120.527 46.0154 118.811 47.0787 118.183C45.9912 115.113 43.0671 112.987 39.7321 112.914C36.5179 112.769 33.4971 114.751 32.2163 117.82Z" fill="#FFD54F"/>
</mask>
<g mask="url(#mask4_2153_153)">
<path id="Vector_23" d="M31.1302 119.223C31.1302 119.223 29.9944 122.244 35.9877 116.299C35.9877 116.299 45.3644 111.659 39.7819 111.828C34.1994 111.997 31.1302 118.691 31.1302 118.691V119.223V119.223Z" fill="#F5A546"/>
</g>
</g>
<path id="Vector_24" d="M32.2163 117.823C33.3038 118.548 35.5029 119.805 38.5238 120.071C42.7529 120.53 46.0154 118.814 47.0787 118.186C45.9912 115.117 43.0671 112.99 39.7321 112.917C36.4938 112.772 33.4971 114.754 32.2163 117.823Z" stroke="#571C32" stroke-width="0.791594" stroke-miterlimit="10" stroke-linecap="round" stroke-linejoin="round"/>
<path id="Vector_25" d="M74.072 48.4182L72.2837 56.3448L74.0962 59.9457C77.0445 59.8248 79.1228 56.4415 79.6303 53.8315C79.9687 52.0915 79.5095 49.9165 77.8178 49.0224C76.682 48.4665 75.3045 48.3215 74.072 48.4182L69.7945 52.9132Z" fill="#FFD44F"/>
<path id="Vector_26" d="M74.072 48.4182L72.2837 56.3448L74.0962 59.9457C77.0445 59.8248 79.1228 56.4415 79.6303 53.8315C79.9687 52.0915 79.5095 49.9165 77.8178 49.0224C76.682 48.4665 75.3045 48.3215 74.072 48.4182ZM74.072 48.4182L69.7945 52.9132" stroke="#571C32" stroke-width="0.791594" stroke-miterlimit="10"/>
<path id="Vector_27" d="M29.3402 48.418L31.1285 56.3447L29.316 59.9697C26.3677 59.8488 24.2894 56.4655 23.7819 53.8555C23.4435 52.1155 23.9027 49.9405 25.5944 49.0464C26.706 48.4664 28.0835 48.3214 29.3402 48.418L33.6177 52.913Z" fill="#FFD44F"/>
<path id="Vector_28" d="M29.3402 48.418L31.1285 56.3447L29.316 59.9697C26.3677 59.8488 24.2894 56.4655 23.7819 53.8555C23.4435 52.1155 23.9027 49.9405 25.5944 49.0464C26.706 48.4664 28.0835 48.3214 29.3402 48.418ZM29.3402 48.418L33.6177 52.913" stroke="#571C32" stroke-width="0.791594" stroke-miterlimit="10"/>
<path id="Vector_29" d="M32.2645 80.4862L36.9287 76.2329L42.3178 67.8229L41.1336 66.8321C41.1336 66.8321 27.6004 77.4171 27.1895 78.6012C26.7545 79.7854 28.4462 85.5129 28.4462 85.5129C28.4462 85.5129 27.7212 87.3495 30.5728 86.5279C30.5728 86.5279 28.857 88.437 24.362 84.087C24.362 84.087 19.0696 86.8179 22.477 91.337C22.477 91.337 27.3587 95.397 33.4245 92.2795C39.4661 89.162 30.9112 78.6012 30.9112 78.6012" fill="#FFD44F"/>
<path id="Vector_30" d="M32.2645 80.4862L36.9287 76.2329L42.3178 67.8229L41.1336 66.8321C41.1336 66.8321 27.6004 77.4171 27.1895 78.6012C26.7545 79.7854 28.4462 85.5129 28.4462 85.5129C28.4462 85.5129 27.7212 87.3495 30.5728 86.5279C30.5728 86.5279 28.857 88.437 24.362 84.087C24.362 84.087 19.0696 86.8179 22.477 91.337C22.477 91.337 27.3587 95.397 33.4245 92.2795C39.4661 89.162 30.9112 78.6012 30.9112 78.6012" stroke="#571C32" stroke-width="0.791594" stroke-miterlimit="10" stroke-linecap="round" stroke-linejoin="round"/>
<path id="Vector_31" d="M68.0059 37.3974C67.1117 34.3766 65.4925 30.1474 62.5442 25.8458C57.8076 18.9583 52.1284 15.6233 49.0593 14.125C49.0593 14.125 49.9051 23.6708 47.8751 24.9516C47.8751 24.9516 44.3951 18.8133 42.2926 19.0792C42.2926 19.0792 37.1451 31.1141 35.8401 36.6966C34.5351 35.9716 33.1818 34.9808 32.3601 33.5308C31.0068 35.5124 28.6627 39.4274 27.8168 45.0824C27.406 47.7891 27.1402 58.809 32.2876 66.4457C36.8068 73.0673 45.0234 74.1548 51.6692 74.179C56.5751 74.2031 66.5559 73.309 70.9783 66.8323C75.7633 59.7515 76.1983 48.7557 75.3767 43.8257C74.6033 39.2824 73.0325 36.0199 72.67 35.2949C71.51 32.9991 70.2292 31.2349 69.2384 30.0749C68.7792 32.5158 68.4167 34.9566 68.0059 37.3974Z" fill="#FFD44F"/>
<path id="Vector_32" d="M68.0059 37.3974C67.1117 34.3766 65.4925 30.1474 62.5442 25.8458C57.8076 18.9583 52.1284 15.6233 49.0593 14.125C49.0593 14.125 49.9051 23.6708 47.8751 24.9516C47.8751 24.9516 44.3951 18.8133 42.2926 19.0792C42.2926 19.0792 37.1451 31.1141 35.8401 36.6966C34.5351 35.9716 33.1818 34.9808 32.3601 33.5308C31.0068 35.5124 28.6627 39.4274 27.8168 45.0824C27.406 47.7891 27.1402 58.809 32.2876 66.4457C36.8068 73.0673 45.0234 74.1548 51.6692 74.179C56.5751 74.2031 66.5559 73.309 70.9783 66.8323C75.7633 59.7515 76.1983 48.7557 75.3767 43.8257C74.6033 39.2824 73.0325 36.0199 72.67 35.2949C71.51 32.9991 70.2292 31.2349 69.2384 30.0749C68.7792 32.5158 68.4167 34.9566 68.0059 37.3974Z" stroke="#571C32" stroke-width="0.791594" stroke-miterlimit="10"/>
<path id="Vector_33" d="M47.9006 24.9516C47.9006 24.9516 44.4206 18.8133 42.3181 19.0792C42.3181 19.0792 37.1706 31.1141 35.8656 36.6966C34.5606 35.9716 33.2073 34.9808 32.3857 33.5308C31.0323 35.5124 28.6882 39.4274 27.8423 45.0824C27.4315 47.789 27.1657 58.809 32.3132 66.4457C34.464 69.6115 37.4606 71.4965 40.7231 72.6323C44.2998 73.8648 34.1257 50.4474 44.2756 39.8382C47.1273 36.8658 57.2289 28.9633 49.0848 14.125C49.0848 14.125 50.1481 24.6133 47.9006 24.9516Z" fill="#F5A546"/>
<path id="Vector_34" d="M68.0059 37.3974C67.1117 34.3766 65.4925 30.1474 62.5442 25.8458C57.8076 18.9583 52.1284 15.6233 49.0593 14.125C49.0593 14.125 49.9051 23.6708 47.8751 24.9516C47.8751 24.9516 44.3951 18.8133 42.2926 19.0792C42.2926 19.0792 37.1451 31.1141 35.8401 36.6966C34.5351 35.9716 33.1818 34.9808 32.3601 33.5308C31.0068 35.5124 28.6627 39.4274 27.8168 45.0824C27.406 47.7891 27.1402 58.809 32.2876 66.4457C36.8068 73.0673 45.0234 74.1548 51.6692 74.179C56.5751 74.2031 66.5559 73.309 70.9783 66.8323C75.7633 59.7515 76.1983 48.7557 75.3767 43.8257C74.6033 39.2824 73.0325 36.0199 72.67 35.2949C71.51 32.9991 70.2292 31.2349 69.2384 30.0749C68.7792 32.5158 68.4167 34.9566 68.0059 37.3974Z" stroke="#571C32" stroke-width="0.791594" stroke-miterlimit="10"/>
<path id="Vector_35" d="M37.5576 66.5144C43.5509 72.0727 56.6492 72.4111 65.47 66.7561C71.0041 63.2036 74.1699 46.6495 62.7391 44.837C54.7642 43.5803 44.3484 44.3053 40.7717 44.8128C29.3651 46.6253 33.9326 63.1553 37.5576 66.5144Z" fill="#F8F4DD"/>
<path id="Vector_36" d="M37.5576 66.5144C43.5509 72.0727 56.6492 72.4111 65.47 66.7561C71.0041 63.2036 74.1699 46.6495 62.7391 44.837C54.7642 43.5803 44.3484 44.3053 40.7717 44.8128C29.3651 46.6253 33.9326 63.1553 37.5576 66.5144Z" stroke="#571C32" stroke-width="0.791594" stroke-miterlimit="10"/>
<path id="Vector 43" d="M48.9859 63.312C48.9859 63.312 49.7828 65.6312 52.6948 65.542C55.6067 65.4528 56.2971 63.312 56.2971 63.312" stroke="#571C32" stroke-width="0.791594" stroke-linecap="round"/>
<path id="Vector_37" d="M65.4375 88.1721C65.7558 88.1891 66.0137 87.9573 66.0307 87.639C66.0477 87.3207 65.8159 87.0628 65.4976 87.0458C65.1793 87.0289 64.9214 87.2606 64.9044 87.5789C64.8875 87.8972 65.1437 88.1564 65.4375 88.1721Z" fill="white"/>
<path id="Vector_38" d="M65.8874 85.7255C65.716 85.7164 65.7858 83.4857 64.9118 80.0753C63.9608 76.2678 62.6232 74.1831 62.7998 74.0943C62.9791 73.9566 65.0573 76.4245 65.8811 79.8568C66.602 82.9154 66.0859 85.687 65.8874 85.7255Z" fill="white"/>
<path id="Vector_39" d="M61.9267 31.012C61.7551 31.061 60.8233 27.6284 57.3417 23.6563C54.2278 20.0765 50.9422 18.2621 51.0648 18.164C51.3836 17.8943 55.0859 19.8559 58.0527 23.2395C61.4363 26.9909 62.2454 30.9139 61.9267 31.012Z" fill="white"/>
<path id="Vector_40" d="M73.4994 48.9642C73.3523 48.9642 73.1807 46.12 72.3471 41.9272C71.6115 38.1759 70.0668 35.5768 70.1404 35.5278C70.6553 35.3562 72.298 38.372 73.0336 41.9272C73.8182 45.9483 73.9653 49.0132 73.4994 48.9642Z" fill="white"/>
<ellipse id="Ellipse 107" cx="46.0666" cy="54.0142" rx="3.62913" ry="3.97406" fill="#571C32"/>
<ellipse id="Ellipse 111" cx="57.9628" cy="54.0142" rx="3.62913" ry="3.97406" fill="#571C32"/>
<ellipse id="Ellipse 109" cx="47.1084" cy="54.3847" rx="1.16599" ry="1.27682" fill="#F8F4DD"/>
<ellipse id="Ellipse 114" cx="59.0256" cy="54.3847" rx="1.16599" ry="1.27682" fill="#F8F4DD"/>
<path id="Ellipse 110" d="M44.54 54.415C44.5536 55.1952 45.3701 55.7796 44.7934 55.7897C44.2167 55.7998 43.7382 55.1755 43.7245 54.3953C43.7109 53.6151 44.1673 52.9745 44.744 52.9644C45.3207 52.9543 44.5263 53.6348 44.54 54.415Z" fill="#F8F4DD"/>
<path id="Ellipse 113" d="M56.4842 54.2914C56.4842 55.0663 57.2847 55.6607 56.7119 55.6607C56.1392 55.6607 55.6749 55.0326 55.6749 54.2577C55.6749 53.4829 56.1392 52.8547 56.7119 52.8547C57.2847 52.8547 56.4842 53.5166 56.4842 54.2914Z" fill="#F8F4DD"/>
</g>
</g>
</g>
</g>
</g>
<defs>
<linearGradient id="paint0_linear_2153_153" x1="53.5911" y1="79.3678" x2="-24.4277" y2="-8.21646" gradientUnits="userSpaceOnUse">
<stop stop-color="white"/>
<stop offset="1" stop-color="#FFDDA1"/>
</linearGradient>
<linearGradient id="paint1_linear_2153_153" x1="51.2794" y1="80.8948" x2="-65.8899" y2="83.572" gradientUnits="userSpaceOnUse">
<stop stop-color="white"/>
<stop offset="1" stop-color="#FFDDA1"/>
</linearGradient>
<linearGradient id="paint2_linear_2153_153" x1="60.2996" y1="81.092" x2="-76.9694" y2="252.104" gradientUnits="userSpaceOnUse">
<stop stop-color="white"/>
<stop offset="1" stop-color="#FFDDA1"/>
</linearGradient>
<linearGradient id="paint3_linear_2153_153" x1="38.5958" y1="90.4619" x2="136.931" y2="-52.5348" gradientUnits="userSpaceOnUse">
<stop stop-color="white"/>
<stop offset="1" stop-color="#FFDDA1"/>
</linearGradient>
<linearGradient id="paint4_linear_2153_153" x1="6.44366" y1="88.7994" x2="299.775" y2="37.4012" gradientUnits="userSpaceOnUse">
<stop stop-color="white"/>
<stop offset="1" stop-color="#FFDDA1"/>
</linearGradient>
<linearGradient id="paint5_linear_2153_153" x1="35.9847" y1="87.5851" x2="248.32" y2="214.215" gradientUnits="userSpaceOnUse">
<stop stop-color="white"/>
<stop offset="1" stop-color="#FFDDA1"/>
</linearGradient>
</defs>
</svg>
